<?xml version="1.0" encoding="UTF-8"?>
<svg width="200px" height="200px" viewBox="0 0 200 200" version="1.1" xmlns="http://www.w3.org/2000/svg" xmlns:xlink="http://www.w3.org/1999/xlink">
    <title>feather</title>
    <desc>Created with Sketch.</desc>
    <defs></defs>
    <g id="Page-1" stroke="none" stroke-width="1" fill="none" fill-rule="evenodd">
        <g id="Artboard">
            <g id="feather">
                <circle id="Oval" stroke="#FFFFFF" stroke-width="5" fill="#395063" fill-rule="evenodd" cx="100" cy="100" r="100"></circle>
                <path d="M109.8514,115.283508 C106.849178,129.588203 100.250982,134.063598 100.250982,142.554351 C100.250982,144.510623 100.250982,146.532679 100.250982,148.620519 C100.250982,152.442193 100.250982,158.670625 100.250982,167.305816 C100.250982,135.044174 100.250982,108.860377 100.250982,88.7544246 C100.257026,88.7462889 100.266517,88.733098 100.279556,88.7147132 C100.814124,87.9609913 103.967135,81.1522431 107.269409,73.3192336 C104.987657,66.4032966 102.209182,58.4349174 100.250982,40.2590731 C100.250982,44.8816677 100.250982,61.045474 100.250982,88.7504921 C100.453599,88.4277209 104.462888,82.5060385 108.292096,76.5011063 C109.699643,81.0751043 110.790781,85.816045 111.166442,93.4980382 C106.421257,99.8809196 102.411264,105.114158 102.411264,105.114158 C102.411264,105.114158 106.633849,101.471161 111.287613,97.2652351 C111.300998,98.0590781 111.307845,98.8812672 111.307845,99.7339443 C111.307845,104.061501 111.035352,107.814741 110.575922,111.109858 C106.304187,116.933801 102.712448,121.644993 102.090331,122.160648 C101.568716,122.592999 105.358088,119.322089 109.8514,115.283508 Z M89.0072626,100.689309 C89.0024451,100.289584 89,99.8848042 89,99.4748712 C89,91.7582919 89.5607343,86.5386595 90.4538387,82.228514 C94.5118675,88.926312 99.1882765,96.0687172 99.1882765,96.0687172 C99.1882765,96.0687172 95.2387606,87.2569175 91.5075819,77.9562539 C93.9473003,69.3661847 97.6313373,62.5135225 100.056863,40 C100.056863,48.9732378 100.056863,91.3221521 100.056863,167.046743 C100.056863,158.411552 100.056863,152.183119 100.056863,148.361446 C100.056863,146.273606 100.056863,144.25155 100.056863,142.295278 C100.056863,132.065665 90.4793847,127.664463 89.1519425,104.880202 C94.1881998,109.606456 98.860516,113.781755 98.2893123,113.291234 C97.6282826,112.723575 93.5999796,107.21802 89.0072626,100.689309 Z" id="Combined-Shape" stroke="#FFFFFF" stroke-width="1" fill="#FFFFFF" fill-rule="evenodd"></path>
                <path d="" id="Path-2" stroke="#979797" stroke-width="1"></path>
            </g>
        </g>
    </g>
</svg>